<mxfile host="Electron" agent="Mozilla/5.0 (Windows NT 10.0; Win64; x64) AppleWebKit/537.36 (KHTML, like Gecko) draw.io/24.7.17 Chrome/128.0.6613.36 Electron/32.0.1 Safari/537.36" version="24.7.17">
  <diagram name="1 oldal" id="Ku8kSpyPXHSGorX3yKVs">
    <mxGraphModel dx="1417" dy="1044" grid="1" gridSize="10" guides="1" tooltips="1" connect="1" arrows="1" fold="1" page="1" pageScale="1" pageWidth="827" pageHeight="1169" math="0" shadow="0">
      <root>
        <mxCell id="0" />
        <mxCell id="1" parent="0" />
        <mxCell id="ffowKbURBQ_B1bzKh_Tq-4" value="Vonat" style="rounded=0;whiteSpace=wrap;html=1;shape=label;margin=3;double=1;verticalAlign=middle;" vertex="1" parent="1">
          <mxGeometry x="70" y="460" width="100" height="30" as="geometry" />
        </mxCell>
        <mxCell id="ffowKbURBQ_B1bzKh_Tq-7" value="Állomás" style="rounded=0;whiteSpace=wrap;html=1;" vertex="1" parent="1">
          <mxGeometry x="690" y="460" width="100" height="30" as="geometry" />
        </mxCell>
        <mxCell id="ffowKbURBQ_B1bzKh_Tq-9" value="" style="endArrow=none;html=1;rounded=0;entryX=0.5;entryY=1;entryDx=0;entryDy=0;exitX=0.5;exitY=0;exitDx=0;exitDy=0;" edge="1" parent="1" source="ffowKbURBQ_B1bzKh_Tq-4" target="ffowKbURBQ_B1bzKh_Tq-15">
          <mxGeometry width="50" height="50" relative="1" as="geometry">
            <mxPoint x="470" y="450" as="sourcePoint" />
            <mxPoint x="520" y="400" as="targetPoint" />
          </mxGeometry>
        </mxCell>
        <mxCell id="ffowKbURBQ_B1bzKh_Tq-11" value="" style="endArrow=none;html=1;rounded=0;entryX=0.5;entryY=1;entryDx=0;entryDy=0;exitX=0;exitY=0;exitDx=0;exitDy=0;" edge="1" parent="1" source="ffowKbURBQ_B1bzKh_Tq-23" target="ffowKbURBQ_B1bzKh_Tq-14">
          <mxGeometry width="50" height="50" relative="1" as="geometry">
            <mxPoint x="430" y="290" as="sourcePoint" />
            <mxPoint x="520" y="400" as="targetPoint" />
          </mxGeometry>
        </mxCell>
        <mxCell id="ffowKbURBQ_B1bzKh_Tq-14" value="mikor" style="ellipse;whiteSpace=wrap;html=1;align=center;" vertex="1" parent="1">
          <mxGeometry x="299" y="100" width="100" height="40" as="geometry" />
        </mxCell>
        <mxCell id="ffowKbURBQ_B1bzKh_Tq-15" value="vonatszám" style="ellipse;whiteSpace=wrap;html=1;align=center;fontStyle=4" vertex="1" parent="1">
          <mxGeometry x="70" y="390" width="100" height="40" as="geometry" />
        </mxCell>
        <mxCell id="ffowKbURBQ_B1bzKh_Tq-16" value="mikor" style="ellipse;whiteSpace=wrap;html=1;align=center;" vertex="1" parent="1">
          <mxGeometry x="310" y="820" width="100" height="40" as="geometry" />
        </mxCell>
        <mxCell id="ffowKbURBQ_B1bzKh_Tq-21" value="végállomás" style="shape=rhombus;double=0;whiteSpace=wrap;html=1;align=center;perimeter=rhombusPerimeter;" vertex="1" parent="1">
          <mxGeometry x="380" y="690" width="100" height="50" as="geometry" />
        </mxCell>
        <mxCell id="ffowKbURBQ_B1bzKh_Tq-22" value="" style="endArrow=none;html=1;rounded=0;entryX=0;entryY=1;entryDx=0;entryDy=0;exitX=0.5;exitY=0;exitDx=0;exitDy=0;" edge="1" parent="1" source="ffowKbURBQ_B1bzKh_Tq-16" target="ffowKbURBQ_B1bzKh_Tq-21">
          <mxGeometry relative="1" as="geometry">
            <mxPoint x="410" y="430" as="sourcePoint" />
            <mxPoint x="570" y="430" as="targetPoint" />
          </mxGeometry>
        </mxCell>
        <mxCell id="ffowKbURBQ_B1bzKh_Tq-23" value="induló" style="shape=rhombus;double=0;perimeter=rhombusPerimeter;whiteSpace=wrap;html=1;align=center;" vertex="1" parent="1">
          <mxGeometry x="354" y="200" width="100" height="50" as="geometry" />
        </mxCell>
        <mxCell id="ffowKbURBQ_B1bzKh_Tq-24" value="&lt;u&gt;név&lt;/u&gt;" style="ellipse;whiteSpace=wrap;html=1;align=center;" vertex="1" parent="1">
          <mxGeometry x="850" y="390" width="100" height="40" as="geometry" />
        </mxCell>
        <mxCell id="ffowKbURBQ_B1bzKh_Tq-26" value="hely" style="ellipse;whiteSpace=wrap;html=1;align=center;" vertex="1" parent="1">
          <mxGeometry x="850" y="530" width="100" height="40" as="geometry" />
        </mxCell>
        <mxCell id="ffowKbURBQ_B1bzKh_Tq-27" value="" style="endArrow=none;html=1;rounded=0;entryX=0;entryY=0.5;entryDx=0;entryDy=0;exitX=1;exitY=0;exitDx=0;exitDy=0;" edge="1" parent="1" source="ffowKbURBQ_B1bzKh_Tq-7" target="ffowKbURBQ_B1bzKh_Tq-24">
          <mxGeometry width="50" height="50" relative="1" as="geometry">
            <mxPoint x="470" y="450" as="sourcePoint" />
            <mxPoint x="520" y="400" as="targetPoint" />
          </mxGeometry>
        </mxCell>
        <mxCell id="ffowKbURBQ_B1bzKh_Tq-28" value="" style="endArrow=none;html=1;rounded=0;entryX=0;entryY=0.5;entryDx=0;entryDy=0;exitX=1;exitY=1;exitDx=0;exitDy=0;" edge="1" parent="1" source="ffowKbURBQ_B1bzKh_Tq-7" target="ffowKbURBQ_B1bzKh_Tq-26">
          <mxGeometry width="50" height="50" relative="1" as="geometry">
            <mxPoint x="470" y="450" as="sourcePoint" />
            <mxPoint x="520" y="400" as="targetPoint" />
          </mxGeometry>
        </mxCell>
        <mxCell id="ffowKbURBQ_B1bzKh_Tq-29" value="" style="endArrow=classic;html=1;rounded=0;exitX=1;exitY=0.5;exitDx=0;exitDy=0;entryX=0;entryY=1;entryDx=0;entryDy=0;" edge="1" parent="1" source="ffowKbURBQ_B1bzKh_Tq-21" target="ffowKbURBQ_B1bzKh_Tq-7">
          <mxGeometry width="50" height="50" relative="1" as="geometry">
            <mxPoint x="470" y="450" as="sourcePoint" />
            <mxPoint x="520" y="400" as="targetPoint" />
          </mxGeometry>
        </mxCell>
        <mxCell id="ffowKbURBQ_B1bzKh_Tq-30" value="" style="endArrow=classic;html=1;rounded=0;exitX=1;exitY=0.5;exitDx=0;exitDy=0;entryX=0;entryY=0;entryDx=0;entryDy=0;" edge="1" parent="1" source="ffowKbURBQ_B1bzKh_Tq-23" target="ffowKbURBQ_B1bzKh_Tq-7">
          <mxGeometry width="50" height="50" relative="1" as="geometry">
            <mxPoint x="470" y="450" as="sourcePoint" />
            <mxPoint x="520" y="400" as="targetPoint" />
          </mxGeometry>
        </mxCell>
        <mxCell id="ffowKbURBQ_B1bzKh_Tq-31" value="" style="endArrow=none;html=1;rounded=0;entryX=1;entryY=0;entryDx=0;entryDy=0;exitX=0;exitY=0.5;exitDx=0;exitDy=0;" edge="1" parent="1" source="ffowKbURBQ_B1bzKh_Tq-23" target="ffowKbURBQ_B1bzKh_Tq-4">
          <mxGeometry width="50" height="50" relative="1" as="geometry">
            <mxPoint x="430" y="290" as="sourcePoint" />
            <mxPoint x="520" y="400" as="targetPoint" />
          </mxGeometry>
        </mxCell>
        <mxCell id="ffowKbURBQ_B1bzKh_Tq-32" value="" style="endArrow=none;html=1;rounded=0;entryX=1;entryY=1;entryDx=0;entryDy=0;exitX=0;exitY=0.5;exitDx=0;exitDy=0;" edge="1" parent="1" source="ffowKbURBQ_B1bzKh_Tq-21" target="ffowKbURBQ_B1bzKh_Tq-4">
          <mxGeometry width="50" height="50" relative="1" as="geometry">
            <mxPoint x="430" y="290" as="sourcePoint" />
            <mxPoint x="520" y="400" as="targetPoint" />
          </mxGeometry>
        </mxCell>
        <mxCell id="ffowKbURBQ_B1bzKh_Tq-33" value="megáll" style="shape=rhombus;perimeter=rhombusPerimeter;whiteSpace=wrap;html=1;align=center;" vertex="1" parent="1">
          <mxGeometry x="400" y="450" width="110" height="55" as="geometry" />
        </mxCell>
        <mxCell id="ffowKbURBQ_B1bzKh_Tq-34" value="" style="endArrow=none;html=1;rounded=0;entryX=1;entryY=0.5;entryDx=0;entryDy=0;exitX=0;exitY=0.5;exitDx=0;exitDy=0;" edge="1" parent="1" source="ffowKbURBQ_B1bzKh_Tq-33" target="ffowKbURBQ_B1bzKh_Tq-4">
          <mxGeometry width="50" height="50" relative="1" as="geometry">
            <mxPoint x="430" y="290" as="sourcePoint" />
            <mxPoint x="520" y="400" as="targetPoint" />
          </mxGeometry>
        </mxCell>
        <mxCell id="ffowKbURBQ_B1bzKh_Tq-35" value="" style="endArrow=none;html=1;rounded=0;exitX=0;exitY=0.5;exitDx=0;exitDy=0;entryX=1;entryY=0.5;entryDx=0;entryDy=0;" edge="1" parent="1" source="ffowKbURBQ_B1bzKh_Tq-7" target="ffowKbURBQ_B1bzKh_Tq-33">
          <mxGeometry width="50" height="50" relative="1" as="geometry">
            <mxPoint x="430" y="290" as="sourcePoint" />
            <mxPoint x="490" y="480" as="targetPoint" />
          </mxGeometry>
        </mxCell>
        <mxCell id="ffowKbURBQ_B1bzKh_Tq-36" value="mikor" style="ellipse;whiteSpace=wrap;html=1;align=center;" vertex="1" parent="1">
          <mxGeometry x="405" y="544" width="100" height="40" as="geometry" />
        </mxCell>
        <mxCell id="ffowKbURBQ_B1bzKh_Tq-37" value="" style="endArrow=none;html=1;rounded=0;exitX=0.5;exitY=1;exitDx=0;exitDy=0;entryX=0.5;entryY=0;entryDx=0;entryDy=0;" edge="1" parent="1" source="ffowKbURBQ_B1bzKh_Tq-33" target="ffowKbURBQ_B1bzKh_Tq-36">
          <mxGeometry width="50" height="50" relative="1" as="geometry">
            <mxPoint x="430" y="290" as="sourcePoint" />
            <mxPoint x="490" y="480" as="targetPoint" />
          </mxGeometry>
        </mxCell>
        <mxCell id="ffowKbURBQ_B1bzKh_Tq-38" value="Admin" style="rounded=0;whiteSpace=wrap;html=1;" vertex="1" parent="1">
          <mxGeometry x="364" y="340" width="100" height="30" as="geometry" />
        </mxCell>
        <mxCell id="ffowKbURBQ_B1bzKh_Tq-40" value="email" style="ellipse;whiteSpace=wrap;html=1;align=center;fontStyle=4" vertex="1" parent="1">
          <mxGeometry x="472.5" y="310" width="75" height="30" as="geometry" />
        </mxCell>
        <mxCell id="ffowKbURBQ_B1bzKh_Tq-41" value="jelszó" style="ellipse;whiteSpace=wrap;html=1;align=center;" vertex="1" parent="1">
          <mxGeometry x="417.5" y="280" width="75" height="30" as="geometry" />
        </mxCell>
        <mxCell id="ffowKbURBQ_B1bzKh_Tq-42" value="név" style="ellipse;whiteSpace=wrap;html=1;align=center;" vertex="1" parent="1">
          <mxGeometry x="335" y="280" width="75" height="30" as="geometry" />
        </mxCell>
        <mxCell id="ffowKbURBQ_B1bzKh_Tq-44" value="" style="endArrow=none;html=1;rounded=0;entryX=0;entryY=0.5;entryDx=0;entryDy=0;exitX=0.75;exitY=0;exitDx=0;exitDy=0;" edge="1" parent="1" source="ffowKbURBQ_B1bzKh_Tq-38" target="ffowKbURBQ_B1bzKh_Tq-40">
          <mxGeometry width="50" height="50" relative="1" as="geometry">
            <mxPoint x="470" y="450" as="sourcePoint" />
            <mxPoint x="520" y="400" as="targetPoint" />
          </mxGeometry>
        </mxCell>
        <mxCell id="ffowKbURBQ_B1bzKh_Tq-45" value="" style="endArrow=none;html=1;rounded=0;entryX=0.5;entryY=1;entryDx=0;entryDy=0;exitX=0.5;exitY=0;exitDx=0;exitDy=0;" edge="1" parent="1" source="ffowKbURBQ_B1bzKh_Tq-38" target="ffowKbURBQ_B1bzKh_Tq-41">
          <mxGeometry width="50" height="50" relative="1" as="geometry">
            <mxPoint x="470" y="450" as="sourcePoint" />
            <mxPoint x="520" y="400" as="targetPoint" />
          </mxGeometry>
        </mxCell>
        <mxCell id="ffowKbURBQ_B1bzKh_Tq-46" value="" style="endArrow=none;html=1;rounded=0;entryX=1;entryY=1;entryDx=0;entryDy=0;exitX=0.25;exitY=0;exitDx=0;exitDy=0;" edge="1" parent="1" source="ffowKbURBQ_B1bzKh_Tq-38" target="ffowKbURBQ_B1bzKh_Tq-42">
          <mxGeometry width="50" height="50" relative="1" as="geometry">
            <mxPoint x="389" y="370" as="sourcePoint" />
            <mxPoint x="520" y="400" as="targetPoint" />
          </mxGeometry>
        </mxCell>
        <mxCell id="ffowKbURBQ_B1bzKh_Tq-47" value="hely" style="ellipse;whiteSpace=wrap;html=1;align=center;" vertex="1" parent="1">
          <mxGeometry x="440" y="100" width="100" height="40" as="geometry" />
        </mxCell>
        <mxCell id="ffowKbURBQ_B1bzKh_Tq-48" value="" style="endArrow=none;html=1;rounded=0;entryX=0.5;entryY=1;entryDx=0;entryDy=0;exitX=1;exitY=0;exitDx=0;exitDy=0;" edge="1" parent="1" source="ffowKbURBQ_B1bzKh_Tq-23" target="ffowKbURBQ_B1bzKh_Tq-47">
          <mxGeometry width="50" height="50" relative="1" as="geometry">
            <mxPoint x="430" y="290" as="sourcePoint" />
            <mxPoint x="520" y="400" as="targetPoint" />
          </mxGeometry>
        </mxCell>
        <mxCell id="ffowKbURBQ_B1bzKh_Tq-49" value="hely" style="ellipse;whiteSpace=wrap;html=1;align=center;" vertex="1" parent="1">
          <mxGeometry x="460" y="820" width="100" height="40" as="geometry" />
        </mxCell>
        <mxCell id="ffowKbURBQ_B1bzKh_Tq-50" value="" style="endArrow=none;html=1;rounded=0;entryX=1;entryY=1;entryDx=0;entryDy=0;exitX=0.5;exitY=0;exitDx=0;exitDy=0;" edge="1" parent="1" source="ffowKbURBQ_B1bzKh_Tq-49" target="ffowKbURBQ_B1bzKh_Tq-21">
          <mxGeometry relative="1" as="geometry">
            <mxPoint x="410" y="430" as="sourcePoint" />
            <mxPoint x="570" y="430" as="targetPoint" />
          </mxGeometry>
        </mxCell>
        <mxCell id="ffowKbURBQ_B1bzKh_Tq-52" value="Menetrend" style="rounded=0;whiteSpace=wrap;html=1;" vertex="1" parent="1">
          <mxGeometry x="-20" y="160" width="100" height="30" as="geometry" />
        </mxCell>
        <mxCell id="ffowKbURBQ_B1bzKh_Tq-53" value="&lt;u&gt;vonatszám&lt;/u&gt;" style="ellipse;whiteSpace=wrap;html=1;align=center;" vertex="1" parent="1">
          <mxGeometry x="-100" y="30" width="100" height="40" as="geometry" />
        </mxCell>
        <mxCell id="ffowKbURBQ_B1bzKh_Tq-54" value="érkezési idő" style="ellipse;whiteSpace=wrap;html=1;align=center;" vertex="1" parent="1">
          <mxGeometry x="120" y="30" width="100" height="40" as="geometry" />
        </mxCell>
        <mxCell id="ffowKbURBQ_B1bzKh_Tq-55" value="állomás név" style="ellipse;whiteSpace=wrap;html=1;align=center;fontStyle=4" vertex="1" parent="1">
          <mxGeometry x="10" y="30" width="100" height="40" as="geometry" />
        </mxCell>
        <mxCell id="ffowKbURBQ_B1bzKh_Tq-56" value="indulási idő" style="ellipse;whiteSpace=wrap;html=1;align=center;" vertex="1" parent="1">
          <mxGeometry x="130" y="80" width="100" height="40" as="geometry" />
        </mxCell>
        <mxCell id="ffowKbURBQ_B1bzKh_Tq-57" value="napok" style="ellipse;whiteSpace=wrap;html=1;align=center;" vertex="1" parent="1">
          <mxGeometry x="140" y="130" width="100" height="40" as="geometry" />
        </mxCell>
        <mxCell id="ffowKbURBQ_B1bzKh_Tq-59" value="" style="endArrow=none;html=1;rounded=0;exitX=0;exitY=0;exitDx=0;exitDy=0;entryX=0.5;entryY=1;entryDx=0;entryDy=0;" edge="1" parent="1" source="ffowKbURBQ_B1bzKh_Tq-52" target="ffowKbURBQ_B1bzKh_Tq-53">
          <mxGeometry width="50" height="50" relative="1" as="geometry">
            <mxPoint x="-100" y="-130" as="sourcePoint" />
            <mxPoint x="-50" y="80" as="targetPoint" />
          </mxGeometry>
        </mxCell>
        <mxCell id="ffowKbURBQ_B1bzKh_Tq-60" value="" style="endArrow=none;html=1;rounded=0;entryX=0.5;entryY=1;entryDx=0;entryDy=0;exitX=0.25;exitY=0;exitDx=0;exitDy=0;" edge="1" parent="1" source="ffowKbURBQ_B1bzKh_Tq-52" target="ffowKbURBQ_B1bzKh_Tq-55">
          <mxGeometry width="50" height="50" relative="1" as="geometry">
            <mxPoint x="-100" y="-130" as="sourcePoint" />
            <mxPoint x="-50" y="-180" as="targetPoint" />
            <Array as="points" />
          </mxGeometry>
        </mxCell>
        <mxCell id="ffowKbURBQ_B1bzKh_Tq-61" value="" style="endArrow=none;html=1;rounded=0;entryX=0;entryY=1;entryDx=0;entryDy=0;exitX=0.75;exitY=0;exitDx=0;exitDy=0;" edge="1" parent="1" source="ffowKbURBQ_B1bzKh_Tq-52" target="ffowKbURBQ_B1bzKh_Tq-54">
          <mxGeometry width="50" height="50" relative="1" as="geometry">
            <mxPoint x="-100" y="-130" as="sourcePoint" />
            <mxPoint x="-50" y="-180" as="targetPoint" />
          </mxGeometry>
        </mxCell>
        <mxCell id="ffowKbURBQ_B1bzKh_Tq-62" value="" style="endArrow=none;html=1;rounded=0;entryX=0;entryY=0.5;entryDx=0;entryDy=0;exitX=1;exitY=0;exitDx=0;exitDy=0;" edge="1" parent="1" source="ffowKbURBQ_B1bzKh_Tq-52" target="ffowKbURBQ_B1bzKh_Tq-56">
          <mxGeometry width="50" height="50" relative="1" as="geometry">
            <mxPoint x="-100" y="-130" as="sourcePoint" />
            <mxPoint x="-50" y="-180" as="targetPoint" />
          </mxGeometry>
        </mxCell>
        <mxCell id="ffowKbURBQ_B1bzKh_Tq-63" value="" style="endArrow=none;html=1;rounded=0;entryX=0;entryY=0.5;entryDx=0;entryDy=0;exitX=1;exitY=1;exitDx=0;exitDy=0;" edge="1" parent="1" source="ffowKbURBQ_B1bzKh_Tq-52" target="ffowKbURBQ_B1bzKh_Tq-57">
          <mxGeometry width="50" height="50" relative="1" as="geometry">
            <mxPoint x="-100" y="-130" as="sourcePoint" />
            <mxPoint x="-50" y="-180" as="targetPoint" />
          </mxGeometry>
        </mxCell>
        <mxCell id="ffowKbURBQ_B1bzKh_Tq-64" value="jegy" style="rounded=0;whiteSpace=wrap;html=1;" vertex="1" parent="1">
          <mxGeometry x="-245" y="519" width="100" height="30" as="geometry" />
        </mxCell>
        <mxCell id="ffowKbURBQ_B1bzKh_Tq-69" value="Tag" style="rounded=0;whiteSpace=wrap;html=1;" vertex="1" parent="1">
          <mxGeometry x="-310" y="330" width="100" height="30" as="geometry" />
        </mxCell>
        <mxCell id="ffowKbURBQ_B1bzKh_Tq-70" value="keresés" style="shape=rhombus;perimeter=rhombusPerimeter;whiteSpace=wrap;html=1;align=center;" vertex="1" parent="1">
          <mxGeometry x="-120" y="270" width="100" height="50" as="geometry" />
        </mxCell>
        <mxCell id="ffowKbURBQ_B1bzKh_Tq-71" value="név" style="ellipse;whiteSpace=wrap;html=1;align=center;" vertex="1" parent="1">
          <mxGeometry x="-225" y="240" width="100" height="40" as="geometry" />
        </mxCell>
        <mxCell id="ffowKbURBQ_B1bzKh_Tq-72" value="jelszó" style="ellipse;whiteSpace=wrap;html=1;align=center;" vertex="1" parent="1">
          <mxGeometry x="-340" y="240" width="100" height="40" as="geometry" />
        </mxCell>
        <mxCell id="ffowKbURBQ_B1bzKh_Tq-73" value="email" style="ellipse;whiteSpace=wrap;html=1;align=center;fontStyle=4" vertex="1" parent="1">
          <mxGeometry x="-460" y="260" width="100" height="40" as="geometry" />
        </mxCell>
        <mxCell id="ffowKbURBQ_B1bzKh_Tq-74" value="" style="endArrow=none;html=1;rounded=0;entryX=1;entryY=1;entryDx=0;entryDy=0;exitX=0;exitY=0.25;exitDx=0;exitDy=0;" edge="1" parent="1" source="ffowKbURBQ_B1bzKh_Tq-69" target="ffowKbURBQ_B1bzKh_Tq-73">
          <mxGeometry width="50" height="50" relative="1" as="geometry">
            <mxPoint x="-40" y="520" as="sourcePoint" />
            <mxPoint x="50" y="630" as="targetPoint" />
          </mxGeometry>
        </mxCell>
        <mxCell id="ffowKbURBQ_B1bzKh_Tq-75" value="" style="endArrow=none;html=1;rounded=0;entryX=0.5;entryY=1;entryDx=0;entryDy=0;exitX=0.25;exitY=0;exitDx=0;exitDy=0;" edge="1" parent="1" source="ffowKbURBQ_B1bzKh_Tq-69" target="ffowKbURBQ_B1bzKh_Tq-72">
          <mxGeometry width="50" height="50" relative="1" as="geometry">
            <mxPoint x="-40" y="520" as="sourcePoint" />
            <mxPoint x="50" y="630" as="targetPoint" />
          </mxGeometry>
        </mxCell>
        <mxCell id="ffowKbURBQ_B1bzKh_Tq-76" value="" style="endArrow=none;html=1;rounded=0;entryX=0.5;entryY=1;entryDx=0;entryDy=0;exitX=1;exitY=0;exitDx=0;exitDy=0;" edge="1" parent="1" source="ffowKbURBQ_B1bzKh_Tq-69" target="ffowKbURBQ_B1bzKh_Tq-71">
          <mxGeometry width="50" height="50" relative="1" as="geometry">
            <mxPoint x="130" y="-14" as="sourcePoint" />
            <mxPoint x="220" y="96" as="targetPoint" />
          </mxGeometry>
        </mxCell>
        <mxCell id="ffowKbURBQ_B1bzKh_Tq-78" value="" style="endArrow=none;html=1;rounded=0;entryX=1;entryY=0.5;entryDx=0;entryDy=0;exitX=0.25;exitY=1;exitDx=0;exitDy=0;" edge="1" parent="1" source="ffowKbURBQ_B1bzKh_Tq-52" target="ffowKbURBQ_B1bzKh_Tq-70">
          <mxGeometry width="50" height="50" relative="1" as="geometry">
            <mxPoint x="-100" y="-130" as="sourcePoint" />
            <mxPoint x="-50" y="-180" as="targetPoint" />
          </mxGeometry>
        </mxCell>
        <mxCell id="ffowKbURBQ_B1bzKh_Tq-80" value="vonatszám" style="ellipse;whiteSpace=wrap;html=1;align=center;fontStyle=4" vertex="1" parent="1">
          <mxGeometry x="-245" y="614" width="75" height="30" as="geometry" />
        </mxCell>
        <mxCell id="ffowKbURBQ_B1bzKh_Tq-81" value="" style="endArrow=none;html=1;rounded=0;exitX=0.5;exitY=0;exitDx=0;exitDy=0;entryX=0.5;entryY=1;entryDx=0;entryDy=0;" edge="1" parent="1" source="ffowKbURBQ_B1bzKh_Tq-80" target="ffowKbURBQ_B1bzKh_Tq-64">
          <mxGeometry width="50" height="50" relative="1" as="geometry">
            <mxPoint x="95" y="174" as="sourcePoint" />
            <mxPoint x="-190" y="596" as="targetPoint" />
          </mxGeometry>
        </mxCell>
        <mxCell id="ffowKbURBQ_B1bzKh_Tq-83" value="" style="endArrow=classic;html=1;rounded=0;entryX=1;entryY=1;entryDx=0;entryDy=0;exitX=0;exitY=0;exitDx=0;exitDy=0;" edge="1" parent="1" source="ffowKbURBQ_B1bzKh_Tq-85" target="ffowKbURBQ_B1bzKh_Tq-38">
          <mxGeometry width="50" height="50" relative="1" as="geometry">
            <mxPoint x="560" y="410" as="sourcePoint" />
            <mxPoint x="580" y="360" as="targetPoint" />
          </mxGeometry>
        </mxCell>
        <mxCell id="ffowKbURBQ_B1bzKh_Tq-85" value="állomás felvétele" style="shape=rhombus;double=0;whiteSpace=wrap;html=1;align=center;perimeter=rhombusPerimeter;" vertex="1" parent="1">
          <mxGeometry x="550" y="405" width="90" height="40" as="geometry" />
        </mxCell>
        <mxCell id="ffowKbURBQ_B1bzKh_Tq-87" value="" style="endArrow=none;html=1;rounded=0;entryX=0;entryY=0.25;entryDx=0;entryDy=0;exitX=1;exitY=1;exitDx=0;exitDy=0;" edge="1" parent="1" source="ffowKbURBQ_B1bzKh_Tq-85" target="ffowKbURBQ_B1bzKh_Tq-7">
          <mxGeometry width="50" height="50" relative="1" as="geometry">
            <mxPoint x="470" y="450" as="sourcePoint" />
            <mxPoint x="520" y="400" as="targetPoint" />
          </mxGeometry>
        </mxCell>
        <mxCell id="ffowKbURBQ_B1bzKh_Tq-88" value="vonat&lt;br&gt;felvétele" style="shape=rhombus;double=0;whiteSpace=wrap;html=1;align=center;perimeter=rhombusPerimeter;" vertex="1" parent="1">
          <mxGeometry x="240" y="390" width="90" height="40" as="geometry" />
        </mxCell>
        <mxCell id="ffowKbURBQ_B1bzKh_Tq-89" value="" style="endArrow=classic;html=1;rounded=0;entryX=0;entryY=1;entryDx=0;entryDy=0;exitX=1;exitY=0;exitDx=0;exitDy=0;" edge="1" parent="1" source="ffowKbURBQ_B1bzKh_Tq-88" target="ffowKbURBQ_B1bzKh_Tq-38">
          <mxGeometry width="50" height="50" relative="1" as="geometry">
            <mxPoint x="560" y="410" as="sourcePoint" />
            <mxPoint x="580" y="360" as="targetPoint" />
          </mxGeometry>
        </mxCell>
        <mxCell id="ffowKbURBQ_B1bzKh_Tq-90" value="" style="endArrow=none;html=1;rounded=0;exitX=0;exitY=1;exitDx=0;exitDy=0;entryX=1;entryY=0.25;entryDx=0;entryDy=0;" edge="1" parent="1" source="ffowKbURBQ_B1bzKh_Tq-88" target="ffowKbURBQ_B1bzKh_Tq-4">
          <mxGeometry width="50" height="50" relative="1" as="geometry">
            <mxPoint x="470" y="450" as="sourcePoint" />
            <mxPoint x="520" y="400" as="targetPoint" />
          </mxGeometry>
        </mxCell>
        <mxCell id="ffowKbURBQ_B1bzKh_Tq-95" value="ára" style="ellipse;whiteSpace=wrap;html=1;align=center;fontStyle=0" vertex="1" parent="1">
          <mxGeometry x="-125" y="614" width="75" height="30" as="geometry" />
        </mxCell>
        <mxCell id="ffowKbURBQ_B1bzKh_Tq-96" value="" style="endArrow=none;html=1;rounded=0;entryX=0.75;entryY=1;entryDx=0;entryDy=0;exitX=0;exitY=0;exitDx=0;exitDy=0;" edge="1" parent="1" source="ffowKbURBQ_B1bzKh_Tq-95" target="ffowKbURBQ_B1bzKh_Tq-64">
          <mxGeometry width="50" height="50" relative="1" as="geometry">
            <mxPoint x="95" y="174" as="sourcePoint" />
            <mxPoint x="185" y="284" as="targetPoint" />
          </mxGeometry>
        </mxCell>
        <mxCell id="ffowKbURBQ_B1bzKh_Tq-97" value="jegyei" style="shape=rhombus;perimeter=rhombusPerimeter;whiteSpace=wrap;html=1;align=center;" vertex="1" parent="1">
          <mxGeometry x="-290" y="420" width="108" height="54" as="geometry" />
        </mxCell>
        <mxCell id="ffowKbURBQ_B1bzKh_Tq-98" value="" style="endArrow=none;html=1;rounded=0;exitX=0.5;exitY=0;exitDx=0;exitDy=0;entryX=0.5;entryY=1;entryDx=0;entryDy=0;" edge="1" parent="1" source="ffowKbURBQ_B1bzKh_Tq-64" target="ffowKbURBQ_B1bzKh_Tq-97">
          <mxGeometry width="50" height="50" relative="1" as="geometry">
            <mxPoint x="95" y="174" as="sourcePoint" />
            <mxPoint x="-205" y="544" as="targetPoint" />
          </mxGeometry>
        </mxCell>
        <mxCell id="ffowKbURBQ_B1bzKh_Tq-99" value="" style="endArrow=none;html=1;rounded=0;exitX=0.5;exitY=0;exitDx=0;exitDy=0;entryX=0.5;entryY=1;entryDx=0;entryDy=0;" edge="1" parent="1" source="ffowKbURBQ_B1bzKh_Tq-97" target="ffowKbURBQ_B1bzKh_Tq-69">
          <mxGeometry width="50" height="50" relative="1" as="geometry">
            <mxPoint x="95" y="174" as="sourcePoint" />
            <mxPoint x="-205" y="544" as="targetPoint" />
          </mxGeometry>
        </mxCell>
        <mxCell id="ffowKbURBQ_B1bzKh_Tq-117" value="vásárlás" style="shape=rhombus;perimeter=rhombusPerimeter;whiteSpace=wrap;html=1;align=center;" vertex="1" parent="1">
          <mxGeometry x="-80" y="474" width="108" height="54" as="geometry" />
        </mxCell>
        <mxCell id="ffowKbURBQ_B1bzKh_Tq-118" value="" style="endArrow=none;html=1;rounded=0;entryX=0;entryY=0.5;entryDx=0;entryDy=0;exitX=1;exitY=0.5;exitDx=0;exitDy=0;" edge="1" parent="1" source="ffowKbURBQ_B1bzKh_Tq-117" target="ffowKbURBQ_B1bzKh_Tq-4">
          <mxGeometry width="50" height="50" relative="1" as="geometry">
            <mxPoint x="50" y="530" as="sourcePoint" />
            <mxPoint x="-60" y="590" as="targetPoint" />
          </mxGeometry>
        </mxCell>
        <mxCell id="ffowKbURBQ_B1bzKh_Tq-119" value="" style="endArrow=none;html=1;rounded=0;entryX=0;entryY=0.5;entryDx=0;entryDy=0;exitX=1;exitY=0;exitDx=0;exitDy=0;" edge="1" parent="1" source="ffowKbURBQ_B1bzKh_Tq-64" target="ffowKbURBQ_B1bzKh_Tq-117">
          <mxGeometry width="50" height="50" relative="1" as="geometry">
            <mxPoint x="-110" y="640" as="sourcePoint" />
            <mxPoint x="-60" y="590" as="targetPoint" />
          </mxGeometry>
        </mxCell>
        <mxCell id="ffowKbURBQ_B1bzKh_Tq-124" value="" style="endArrow=none;html=1;rounded=0;entryX=0;entryY=0.5;entryDx=0;entryDy=0;exitX=1;exitY=0.75;exitDx=0;exitDy=0;" edge="1" parent="1" source="ffowKbURBQ_B1bzKh_Tq-69" target="ffowKbURBQ_B1bzKh_Tq-70">
          <mxGeometry width="50" height="50" relative="1" as="geometry">
            <mxPoint x="-100" y="-130" as="sourcePoint" />
            <mxPoint x="-50" y="-180" as="targetPoint" />
          </mxGeometry>
        </mxCell>
        <mxCell id="ffowKbURBQ_B1bzKh_Tq-125" value="csatlakozás" style="ellipse;whiteSpace=wrap;html=1;align=center;" vertex="1" parent="1">
          <mxGeometry x="-170" y="180" width="100" height="40" as="geometry" />
        </mxCell>
        <mxCell id="ffowKbURBQ_B1bzKh_Tq-126" value="" style="endArrow=none;html=1;rounded=0;entryX=1;entryY=1;entryDx=0;entryDy=0;exitX=0.5;exitY=0;exitDx=0;exitDy=0;" edge="1" parent="1" source="ffowKbURBQ_B1bzKh_Tq-70" target="ffowKbURBQ_B1bzKh_Tq-125">
          <mxGeometry width="50" height="50" relative="1" as="geometry">
            <mxPoint x="-100" y="-130" as="sourcePoint" />
            <mxPoint x="-50" y="-180" as="targetPoint" />
          </mxGeometry>
        </mxCell>
        <mxCell id="ffowKbURBQ_B1bzKh_Tq-127" value="" style="endArrow=classic;html=1;rounded=0;entryX=0.102;entryY=0.033;entryDx=0;entryDy=0;exitX=1;exitY=0.5;exitDx=0;exitDy=0;entryPerimeter=0;" edge="1" parent="1" source="ffowKbURBQ_B1bzKh_Tq-128" target="ffowKbURBQ_B1bzKh_Tq-38">
          <mxGeometry width="50" height="50" relative="1" as="geometry">
            <mxPoint x="220" y="290" as="sourcePoint" />
            <mxPoint x="364" y="355" as="targetPoint" />
            <Array as="points" />
          </mxGeometry>
        </mxCell>
        <mxCell id="ffowKbURBQ_B1bzKh_Tq-128" value="menetrend&lt;br&gt;felvétele" style="shape=rhombus;double=0;whiteSpace=wrap;html=1;align=center;perimeter=rhombusPerimeter;" vertex="1" parent="1">
          <mxGeometry x="140" y="240" width="120" height="40" as="geometry" />
        </mxCell>
        <mxCell id="ffowKbURBQ_B1bzKh_Tq-129" value="" style="endArrow=none;html=1;rounded=0;exitX=0;exitY=0;exitDx=0;exitDy=0;entryX=0.75;entryY=1;entryDx=0;entryDy=0;" edge="1" parent="1" source="ffowKbURBQ_B1bzKh_Tq-128" target="ffowKbURBQ_B1bzKh_Tq-52">
          <mxGeometry width="50" height="50" relative="1" as="geometry">
            <mxPoint x="470" y="450" as="sourcePoint" />
            <mxPoint x="520" y="400" as="targetPoint" />
          </mxGeometry>
        </mxCell>
        <mxCell id="ffowKbURBQ_B1bzKh_Tq-130" value="" style="endArrow=none;html=1;rounded=0;entryX=0.75;entryY=0;entryDx=0;entryDy=0;exitX=0;exitY=0.5;exitDx=0;exitDy=0;" edge="1" parent="1" source="ffowKbURBQ_B1bzKh_Tq-138" target="ffowKbURBQ_B1bzKh_Tq-64">
          <mxGeometry width="50" height="50" relative="1" as="geometry">
            <mxPoint x="-30" y="430" as="sourcePoint" />
            <mxPoint x="520" y="400" as="targetPoint" />
          </mxGeometry>
        </mxCell>
        <mxCell id="ffowKbURBQ_B1bzKh_Tq-131" value="" style="endArrow=none;html=1;rounded=0;entryX=0.75;entryY=1;entryDx=0;entryDy=0;exitX=0;exitY=0.5;exitDx=0;exitDy=0;" edge="1" parent="1" source="ffowKbURBQ_B1bzKh_Tq-134" target="ffowKbURBQ_B1bzKh_Tq-69">
          <mxGeometry width="50" height="50" relative="1" as="geometry">
            <mxPoint x="50" y="360" as="sourcePoint" />
            <mxPoint x="520" y="400" as="targetPoint" />
            <Array as="points">
              <mxPoint x="-100" y="430" />
            </Array>
          </mxGeometry>
        </mxCell>
        <mxCell id="ffowKbURBQ_B1bzKh_Tq-134" value="tag&lt;br&gt;felvétele" style="shape=rhombus;double=0;whiteSpace=wrap;html=1;align=center;perimeter=rhombusPerimeter;" vertex="1" parent="1">
          <mxGeometry x="100" y="290" width="120" height="40" as="geometry" />
        </mxCell>
        <mxCell id="ffowKbURBQ_B1bzKh_Tq-135" value="" style="endArrow=classic;html=1;rounded=0;entryX=0;entryY=0.25;entryDx=0;entryDy=0;exitX=1;exitY=0.5;exitDx=0;exitDy=0;" edge="1" parent="1" source="ffowKbURBQ_B1bzKh_Tq-134" target="ffowKbURBQ_B1bzKh_Tq-38">
          <mxGeometry width="50" height="50" relative="1" as="geometry">
            <mxPoint x="220" y="290" as="sourcePoint" />
            <mxPoint x="364" y="355" as="targetPoint" />
            <Array as="points" />
          </mxGeometry>
        </mxCell>
        <mxCell id="ffowKbURBQ_B1bzKh_Tq-138" value="jegy&lt;br&gt;felvétele" style="shape=rhombus;double=0;whiteSpace=wrap;html=1;align=center;perimeter=rhombusPerimeter;" vertex="1" parent="1">
          <mxGeometry x="70" y="330" width="120" height="40" as="geometry" />
        </mxCell>
        <mxCell id="ffowKbURBQ_B1bzKh_Tq-139" value="" style="endArrow=classic;html=1;rounded=0;entryX=0;entryY=0.5;entryDx=0;entryDy=0;exitX=1;exitY=0.5;exitDx=0;exitDy=0;" edge="1" parent="1" source="ffowKbURBQ_B1bzKh_Tq-138" target="ffowKbURBQ_B1bzKh_Tq-38">
          <mxGeometry width="50" height="50" relative="1" as="geometry">
            <mxPoint x="220" y="290" as="sourcePoint" />
            <mxPoint x="364" y="355" as="targetPoint" />
            <Array as="points" />
          </mxGeometry>
        </mxCell>
      </root>
    </mxGraphModel>
  </diagram>
</mxfile>
